Coordinates
version=1
nRows=27
nColumns=17
inDegrees=yes

Units are S.I. units (second, meters, Newtons, ...)
If the header above contains a line with 'inDegrees', this indicates whether rotational values are in degrees (yes) or radians (no).

endheader
time	pelvis_tilt	pelvis_tx	pelvis_ty	hip_flexion_l	hip_flexion_r	knee_angle_l	knee_angle_r	ankle_angle_l	ankle_angle_r	lumbar_extension	FC_flexion	FC_adduction	FC_rotation	FC_tx	FC_ty	FC_tz
      3.47000000	    103.40626366	     -0.30394332	      1.04638221	     -1.82881995	    -15.89414253	    -11.97105973	     -1.10296631	      2.11501719	    -49.95757786	    -28.29138666	     84.14221110	     46.72606588	     95.88684268	      0.05905217	     -0.01607421	     -0.20417742
      3.48000000	    103.43068259	     -0.30396814	      1.04641695	     -1.86099550	    -15.92914081	    -11.96963815	     -1.09439224	      2.45466583	    -49.93278166	    -28.32760338	     83.89081130	     46.75792448	     95.89436941	      0.05872181	     -0.01669155	     -0.20429798
      3.49000000	    103.43056266	     -0.30396907	      1.04638800	     -1.86542933	    -15.92715366	    -11.94857984	     -1.09428476	      2.49696558	    -49.92498866	    -28.32268867	     83.94793099	     46.78680974	     95.86815997	      0.05878483	     -0.01655405	     -0.20434457
      3.50000000	    103.42906820	     -0.30400711	      1.04636533	     -1.85709227	    -15.92098777	    -11.95655260	     -1.10422890	      2.54917680	    -49.92847443	    -28.32777655	     84.04626417	     46.80729182	     95.82302777	      0.05880254	     -0.01645112	     -0.20444186
      3.51000000	    103.42828402	     -0.30402032	      1.04636389	     -1.84714327	    -15.91842973	    -11.96625762	     -1.10287905	      2.60553220	    -49.93169176	    -28.32536186	     84.10732466	     46.84507644	     95.79945536	      0.05886199	     -0.01634694	     -0.20449962
      3.52000000	    103.41822571	     -0.30404358	      1.04640787	     -1.84192910	    -15.91600304	    -11.95556270	     -1.09202839	      2.66911823	    -49.93191952	    -28.30874016	     84.16840626	     46.86590004	     95.75860054	      0.05888870	     -0.01627846	     -0.20461387
      3.53000000	    103.42337665	     -0.30405651	      1.04634870	     -1.83069366	    -15.91062569	    -11.97852285	     -1.10685572	      2.73060720	    -49.93440417	    -28.32120766	     84.22644685	     46.89112296	     95.75174457	      0.05898694	     -0.01615864	     -0.20472177
      3.54000000	    103.41726001	     -0.30408865	      1.04631023	     -1.82012901	    -15.89151255	    -11.97156682	     -1.12616804	      2.83759521	    -49.93550079	    -28.32585035	     84.27036358	     46.93384717	     95.69315039	      0.05892274	     -0.01625303	     -0.20484179
      3.55000000	    103.41076632	     -0.30406250	      1.04636471	     -1.81923011	    -15.90207160	    -11.95499455	     -1.09541707	      2.92330016	    -49.93557591	    -28.30108451	     84.31480808	     46.96265454	     95.66765627	      0.05886645	     -0.01620283	     -0.20498374
      3.56000000	    103.40863006	     -0.30407592	      1.04630907	     -1.81701914	    -15.88111672	    -11.94840062	     -1.12267406	      3.04778224	    -49.94501067	    -28.31877914	     84.34096721	     47.00806453	     95.62371280	      0.05889696	     -0.01632379	     -0.20512426
      3.57000000	    103.41318200	     -0.30405092	      1.04630859	     -1.82097228	    -15.89220829	    -11.94819807	     -1.11236326	      3.12631149	    -49.94373279	    -28.30327788	     84.36657966	     47.01896239	     95.62343309	      0.05896785	     -0.01616807	     -0.20525758
      3.58000000	    103.40591929	     -0.30407667	      1.04642250	     -1.83261792	    -15.90269778	    -11.91894566	     -1.08761488	      3.22652270	    -49.94349504	    -28.28405108	     84.39012675	     47.07311039	     95.60520930	      0.05891653	     -0.01617113	     -0.20536427
      3.59000000	    103.47835911	     -0.30406229	      1.04639853	     -1.90956874	    -15.98483561	    -11.90700189	     -1.08804619	      3.57233320	    -49.88810083	    -28.36592931	     84.17135083	     47.09777694	     95.59099616	      0.05852123	     -0.01673673	     -0.20546823
      3.60000000	    103.47742043	     -0.30411410	      1.04633058	     -1.88880356	    -15.96333607	    -11.93961653	     -1.11824555	      3.66783651	    -49.90293926	    -28.38519668	     84.26158303	     47.12956923	     95.54430795	      0.05862001	     -0.01671651	     -0.20563134
      3.61000000	    103.46946911	     -0.30406599	      1.04639916	     -1.90665775	    -15.97484873	    -11.88966946	     -1.08883520	      3.73740856	    -49.89908864	    -28.35287463	     84.30551462	     47.18819820	     95.54573136	      0.05873095	     -0.01654072	     -0.20580227
      3.62000000	    103.47926074	     -0.30407718	      1.04635488	     -1.91020585	    -15.96895942	    -11.88021898	     -1.11817300	      3.84107054	    -49.88925295	    -28.37595180	     84.35764599	     47.23321376	     95.51373366	      0.05865316	     -0.01658307	     -0.20591348
      3.63000000	    103.47842979	     -0.30407828	      1.04646437	     -1.92460081	    -15.98649781	    -11.86027955	     -1.09703195	      3.94329693	    -49.88373216	    -28.34832704	     84.41616523	     47.27554302	     95.48638583	      0.05867901	     -0.01654376	     -0.20604697
      3.64000000	    103.48210226	     -0.30409323	      1.04643634	     -1.91315237	    -15.98786449	    -11.87286656	     -1.09588167	      4.02151329	    -49.88150728	    -28.36048207	     84.47254089	     47.30400360	     95.48548043	      0.05872426	     -0.01644322	     -0.20616807
      3.65000000	    103.47990418	     -0.30411157	      1.04638447	     -1.91152417	    -15.97744229	    -11.86165076	     -1.10137457	      4.08742582	    -49.88124109	    -28.37424253	     84.52934508	     47.32970879	     95.47137550	      0.05877705	     -0.01636445	     -0.20626996
      3.66000000	    103.48433378	     -0.30411945	      1.04632755	     -1.89865960	    -15.98103166	    -11.88632297	     -1.09958467	      4.15030159	    -49.88307651	    -28.37820461	     84.57021176	     47.35001981	     95.47919113	      0.05895071	     -0.01617862	     -0.20633218
      3.67000000	    103.47776302	     -0.30411648	      1.04637889	     -1.89747170	    -15.98290792	    -11.85179772	     -1.08951904	      4.25266706	    -49.87631508	    -28.36590897	     84.60313875	     47.37260998	     95.42325167	      0.05873757	     -0.01621150	     -0.20630336
      3.68000000	    103.47202012	     -0.30412668	      1.04635841	     -1.89343247	    -15.97012423	    -11.85598465	     -1.10034287	      4.36292508	    -49.88103605	    -28.36449241	     84.64146624	     47.38811768	     95.39111773	      0.05884220	     -0.01618248	     -0.20632032
      3.69000000	    103.47608563	     -0.30413716	      1.04633342	     -1.89866460	    -15.96300978	    -11.83512868	     -1.11601355	      4.46387444	    -49.88075226	    -28.37584384	     84.66984011	     47.39137814	     95.35962750	      0.05870383	     -0.01616366	     -0.20642138
      3.70000000	    103.48027881	     -0.30411296	      1.04635280	     -1.90417497	    -15.98129704	    -11.80108120	     -1.09191602	      4.53577670	    -49.87525861	    -28.36887133	     84.69139597	     47.39608122	     95.32903081	      0.05848936	     -0.01605706	     -0.20643118
      3.71000000	    103.48328900	     -0.30415001	      1.04631637	     -1.90197322	    -15.97771189	    -11.82533026	     -1.09980628	      4.67492499	    -49.87710173	    -28.38800190	     84.73419747	     47.38775457	     95.27125233	      0.05859845	     -0.01616532	     -0.20645437
      3.72000000	    103.48581220	     -0.30414394	      1.04638075	     -1.90869055	    -15.99287729	    -11.83052021	     -1.08349477	      4.79295723	    -49.87921808	    -28.37817747	     84.77194254	     47.38916783	     95.21645958	      0.05869790	     -0.01617797	     -0.20644797
      3.73000000	    103.49242161	     -0.30417513	      1.04633135	     -1.91805647	    -15.98011847	    -11.81116742	     -1.11786467	      4.83608821	    -49.88503167	    -28.38445563	     84.80210467	     47.37980135	     95.20436741	      0.05870567	     -0.01601497	     -0.20650626
